<?xml version="1.0" encoding="UTF-8" standalone="no"?>
<!-- Created with Inkscape (http://www.inkscape.org/) -->

<svg
   width="41.714115mm"
   height="41.714115mm"
   viewBox="0 0 41.714115 41.714125"
   version="1.1"
   id="svg1"
   xml:space="preserve"
   inkscape:export-filename="schwarz.png"
   inkscape:export-xdpi="122"
   inkscape:export-ydpi="122"
   sodipodi:docname="gtlabpython-logo.svg"
   inkscape:version="1.3.2 (091e20e, 2023-11-25, custom)"
   xmlns:inkscape="http://www.inkscape.org/namespaces/inkscape"
   xmlns:sodipodi="http://sodipodi.sourceforge.net/DTD/sodipodi-0.dtd"
   xmlns:xlink="http://www.w3.org/1999/xlink"
   xmlns="http://www.w3.org/2000/svg"
   xmlns:svg="http://www.w3.org/2000/svg"><sodipodi:namedview
     id="namedview1"
     pagecolor="#ffffff"
     bordercolor="#666666"
     borderopacity="1.0"
     inkscape:showpageshadow="2"
     inkscape:pageopacity="0.0"
     inkscape:pagecheckerboard="0"
     inkscape:deskcolor="#d1d1d1"
     inkscape:document-units="mm"
     showgrid="false"
     inkscape:zoom="1.25843"
     inkscape:cx="-491.4854"
     inkscape:cy="47.281134"
     inkscape:window-width="2560"
     inkscape:window-height="1377"
     inkscape:window-x="1912"
     inkscape:window-y="-8"
     inkscape:window-maximized="1"
     inkscape:current-layer="layer1"
     showguides="true"><sodipodi:guide
       position="55.021186,-25.539756"
       orientation="0,-1"
       id="guide6"
       inkscape:locked="false" /></sodipodi:namedview><defs
     id="defs1"><linearGradient
       id="linearGradient5"
       inkscape:collect="always"><stop
         style="stop-color:#f1d600;stop-opacity:1;"
         offset="0"
         id="stop5" /><stop
         style="stop-color:#e0b400;stop-opacity:1;"
         offset="1"
         id="stop6" /></linearGradient><linearGradient
       id="linearGradient3"
       inkscape:collect="always"><stop
         style="stop-color:#4888ba;stop-opacity:1;"
         offset="0"
         id="stop3" /><stop
         style="stop-color:#366c97;stop-opacity:1;"
         offset="1"
         id="stop4" /></linearGradient><linearGradient
       id="linearGradient1"
       inkscape:collect="always"><stop
         style="stop-color:#4989bb;stop-opacity:1;"
         offset="0"
         id="stop1" /><stop
         style="stop-color:#306998;stop-opacity:1;"
         offset="1"
         id="stop2" /></linearGradient><linearGradient
       inkscape:collect="always"
       xlink:href="#linearGradient1"
       id="linearGradient2"
       x1="106.41473"
       y1="147.90869"
       x2="120.11667"
       y2="159.35614"
       gradientUnits="userSpaceOnUse" /><linearGradient
       inkscape:collect="always"
       xlink:href="#linearGradient3"
       id="linearGradient4"
       x1="106.41473"
       y1="147.90869"
       x2="120.11667"
       y2="159.35614"
       gradientUnits="userSpaceOnUse" /><linearGradient
       inkscape:collect="always"
       xlink:href="#linearGradient5"
       id="linearGradient6"
       x1="120.81773"
       y1="154.48456"
       x2="130.02061"
       y2="167.27003"
       gradientUnits="userSpaceOnUse" /></defs><g
     inkscape:label="Ebene 1"
     inkscape:groupmode="layer"
     id="layer1"
     transform="translate(-94.341139,-135.20596)"><circle
       style="fill:#ffffff;fill-opacity:1;stroke:#336d9d;stroke-width:0.658;stroke-dasharray:none;stroke-dashoffset:10.5827;stroke-opacity:1"
       id="path6"
       cy="156.06302"
       cx="115.1982"
       r="20.528057"
       inkscape:export-filename="gtlabpython-logo.png"
       inkscape:export-xdpi="116.91007"
       inkscape:export-ydpi="116.91007" /><path
       id="path1"
       style="fill:url(#linearGradient6);fill-opacity:1;stroke:#e7bd00;stroke-width:0.282;stroke-dasharray:none;stroke-opacity:1"
       d="m 127.46739,148.94391 c -0.34792,0.0152 -0.70636,0.12412 -1.08469,0.37052 -2.44523,0.47098 -3.46498,2.38441 -3.59771,4.83795 0.21742,3.77588 2.52038,5.13106 4.5036,7.29361 0.88959,0.97002 1.31691,1.73383 1.29501,3.03238 -0.0231,1.36622 -0.51681,2.1095 -2.42827,2.3766 -0.90362,0.12627 -2.72797,0.28697 -3.45819,-0.41962 -0.89133,-0.86248 -1.11069,-1.52329 -1.27796,-2.34714 -0.23556,-1.16021 -0.94126,-2.24511 -2.15336,-2.92024 -0.88179,-0.49117 -1.89259,-0.51389 -2.74247,-0.52089 -1.39591,-0.0111 -3.03792,0.58009 -3.69899,1.87223 -0.52601,1.02813 -0.53518,1.52234 -0.29818,3.17965 0.11503,0.80433 -1.11128,0.89417 -2.11615,0.72037 -1.06329,-0.18391 -2.1677,0.97584 -3.14813,0.56948 -0.37074,-0.15366 -0.81538,-0.60378 -1.05109,-1.04645 -0.19049,-0.35776 -0.32133,-0.76217 -0.43822,-0.71727 -0.0951,0.0366 -0.0558,0.50902 0.0847,0.91209 0.22996,0.65961 0.92198,1.40781 1.36426,1.51412 1.64737,0.396 2.12465,-0.47125 3.43906,-0.22066 1.12658,0.36485 2.90592,0.42965 3.14865,-0.97358 0.3095,-1.7892 -0.53674,-1.95016 0.50023,-3.31091 0.51516,-0.67602 1.37089,-0.83179 2.41432,-0.82579 0.5628,0.003 1.66193,0.26408 2.30839,0.93431 0.64645,0.67022 0.0864,1.90376 1.40714,3.85144 1.32075,1.94768 3.72776,2.26337 5.06171,2.28307 1.33396,0.0197 3.50215,-0.0292 4.83537,-1.4671 1.09463,-1.2957 1.3256,-3.33996 0.70279,-4.89582 -0.62279,-1.55586 -3.40101,-3.9879 -5.19709,-6.28231 -0.76244,-0.97398 -1.43371,-2.28966 -0.80512,-3.37963 0.70218,-1.21757 2.21665,-0.44212 3.18998,-0.76792 1.14949,-0.17212 2.6987,0.24831 3.45509,-0.89555 0.79974,-1.36962 -0.93021,-1.7448 -1.9637,-1.94923 -0.76998,-0.41964 -1.48561,-0.84121 -2.25103,-0.80771 z m 1.55081,16.89148 a 1.2614754,1.3049747 0 0 1 1.26142,1.30483 1.2614754,1.3049747 0 0 1 -1.26142,1.30483 1.2614754,1.3049747 0 0 1 -1.26142,-1.30483 1.2614754,1.3049747 0 0 1 1.26142,-1.30483 z" /><path
       id="path183"
       style="fill:url(#linearGradient2);fill-opacity:1;stroke:url(#linearGradient4);stroke-width:0.264583;stroke-opacity:1"
       d="m 101.18992,144.90747 c -1.430195,-0.007 -3.038705,0.95898 -3.042705,2.45928 v 5.14646 5.14645 c -0.0072,1.28301 1.09881,2.59239 2.248955,2.57969 h 5.32216 5.32216 c 1.35945,-0.0257 2.16788,-0.98523 2.18798,-2.60553 v -3.32072 -3.32022 h -3.3073 -3.30729 v 1.5751 1.67328 h 1.8309 1.43712 v 0.77929 0.79891 0.63614 0.49041 h -4.26692 -4.16047 v -4.23333 -4.30207 h 13.4276 13.42761 v -1.78593 -1.71721 h -13.5599 z m -1.13274,0.81649 a 1.2614754,1.3049747 0 0 1 1.26142,1.30483 1.2614754,1.3049747 0 0 1 -1.26142,1.30534 1.2614754,1.3049747 0 0 1 -1.261425,-1.30534 1.2614754,1.3049747 0 0 1 1.261425,-1.30483 z m 18.72754,4.47517 v 5.02709 5.02708 h 1.71979 1.71979 v -5.02708 -5.02709 h -1.71979 z m 2.64583,11.1125 v 2.06396 2.06344 c 0.0309,0.36461 0.27049,0.6321 0.6351,0.6351 h 2.54248 2.54197 c 0.58398,-0.0139 0.8878,-0.38339 0.8878,-0.96738 v -0.84232 -0.84233 c -0.0372,-0.63086 -0.39695,-1.00883 -1.02681,-1.05213 h -2.41846 -2.41794 v -0.52917 -0.52917 h -0.51056 z m -15.08125,1.05834 v 1.43609 1.4366 c 0.0269,0.51356 0.31791,0.79067 0.83147,0.83147 h 3.02411 l 3.02359,-5.1e-4 v -0.39688 -0.40359 h -3.04271 l -3.04271,0.007 v -1.4552 -1.45521 h -0.39688 z m 8.3199,0 c -0.6979,0.0382 -1.18735,0.36838 -1.17615,0.82372 v 0.91106 0.91105 c 0.0367,0.63457 0.47554,1.04743 1.08004,1.05833 h 2.03967 1.97662 v -0.39687 -0.40359 h -2.11615 -2.05414 v -1.05162 -1.06505 h 2.43344 2.43293 v 1.36529 1.55184 h 0.49144 0.33073 v -1.55597 -1.60042 c -0.007,-0.30773 -0.39054,-0.51807 -1.02371,-0.54777 h -2.2071 z m 7.54631,0.78703 h 2.42363 2.42414 c 0.043,1.01101 0.0314,0.96085 0,2.11667 h -2.41226 -2.41174 c 0,-1.29718 -0.0238,-0.81524 -0.0238,-2.11667 z" /></g></svg>
