<svg xmlns="http://www.w3.org/2000/svg" viewBox="0 0 24 24">
 
  <path d="M9.27,20H6V4H13V9H18V13.07C18.7,13.15 19.36,13.32 20,13.56V8L14,2H6A2,2 0 0,0 4,4V20A2,2 0 0,0 6,22H10.5C10,21.41 9.59,20.73 9.27,20Z" />

  <g transform="translate(10,12.5) scale(0.5)">
    <path d="M8.27,3L3,8.27V15.73L8.27,21H15.73C17.5,19.24 21,15.73 21,15.73V8.27L15.73,3M9.1,5H14.9L19,9.1V14.9L14.9,19H9.1L5,14.9V9.1M9.12,7.71L7.71,9.12L10.59,12L7.71,14.88L9.12,16.29L12,13.41L14.88,16.29L16.29,14.88L13.41,12L16.29,9.12L14.88,7.71L12,10.59" />
  </g>

</svg>
